<svg width="600" height="600" viewBox="0 0 600 600" fill="none" xmlns="http://www.w3.org/2000/svg">
<g filter="url(#filter0_d_201_2)">
<path d="M114.136 233.048C137.048 233.048 149.336 222.296 149.336 199.128V146.52H129.368V198.36C129.368 212.056 123.48 217.176 114.136 217.176C103.512 217.176 98.904 210.648 98.904 198.36V146.52H78.936V199.128C78.936 224.088 92.888 233.048 114.136 233.048ZM157.405 231H176.605V198.616C176.605 185.432 183.389 181.72 189.021 181.72C196.189 181.72 199.005 187.48 199.005 195.928V231H218.205V189.016C218.205 171.608 210.269 164.824 198.749 164.824C188.509 164.824 181.597 170.2 176.861 178.136H176.221V167H157.405V231ZM252.906 233.048C259.434 233.048 264.426 231.768 266.602 230.616V216.792C264.042 218.328 260.586 219.096 257.898 219.096C248.81 219.096 248.81 210.392 248.81 202.072V182.616H266.346V167H248.938V151.896H238.186C232.682 162.008 227.306 168.408 219.754 174.04V182.616H229.61V202.712C229.61 217.432 229.61 233.048 252.906 233.048ZM270.51 166.744V231H289.71V166.744C286.382 167.384 283.182 167.768 280.11 167.768C276.526 167.768 273.326 167.256 270.51 166.744ZM269.998 153.816C269.998 159.576 273.326 161.752 280.11 161.752C287.278 161.752 290.35 159.192 290.35 153.816C290.35 148.824 287.79 146.008 280.11 146.008C272.174 146.008 269.998 149.08 269.998 153.816ZM325.136 233.048C331.664 233.048 336.656 231.768 338.832 230.616V216.792C336.272 218.328 332.816 219.096 330.128 219.096C321.04 219.096 321.04 210.392 321.04 202.072V182.616H338.576V167H321.168V151.896H310.416C304.912 162.008 299.536 168.408 291.984 174.04V182.616H301.84V202.712C301.84 217.432 301.84 233.048 325.136 233.048ZM361.94 231V143.96H342.74V231H361.94ZM401.974 233.048C412.726 233.048 420.918 230.872 426.934 227.544V213.464C418.998 217.688 412.086 219.224 405.046 219.224C391.606 219.224 385.846 213.208 385.846 204.12H428.726V195.928C428.726 174.168 416.822 164.824 398.39 164.824C375.862 164.824 366.902 178.52 366.902 198.488C366.902 223.448 380.982 233.048 401.974 233.048ZM385.846 192.344C385.846 182.36 391.478 178.136 399.286 178.136C408.502 178.136 412.086 183.896 412.086 192.344H385.846ZM455.858 233.048C464.306 233.048 472.626 228.824 478.002 221.272H478.642V231H496.69V143.96H477.49V175.832H476.85C471.858 168.408 465.202 164.824 457.01 164.824C439.602 164.824 430.77 178.136 430.77 199.128C430.77 221.912 440.626 233.048 455.858 233.048ZM449.586 199C449.586 184.664 455.474 178.904 463.154 178.904C472.242 178.904 477.362 186.968 477.362 199.128C477.362 212.312 471.602 219.096 463.026 219.096C452.402 219.096 449.586 209.24 449.586 199ZM118.36 344.048C133.336 344.048 144.6 338.8 149.592 333.424V299.76H130.392V325.104C128.6 327.28 124.76 328.304 120.536 328.304C104.92 328.304 95.96 317.04 95.96 299.12C95.96 279.28 106.84 273.392 120.152 273.392C130.264 273.392 138.456 276.72 146.008 280.56V262.64C140.504 259.056 129.624 255.472 117.336 255.472C90.968 255.472 75.48 271.6 75.48 299.632C75.48 328.816 91.992 344.048 118.36 344.048ZM169.595 344.048C178.043 344.048 186.107 340.208 190.715 330.992H191.483C192.123 336.752 193.019 339.824 193.915 342H211.963C210.043 336.112 209.019 330.608 208.379 322.672C207.867 316.528 207.739 310.384 207.739 299.376C207.611 283.12 198.907 275.824 183.547 275.824C173.563 275.824 163.451 279.024 157.051 283.248V299.12C162.939 294.384 171.259 290.544 178.555 290.544C184.827 290.544 188.795 293.36 188.795 297.712C188.795 304.88 176.891 307.312 169.467 309.36C161.019 311.664 151.675 316.528 151.675 328.048C151.675 338.8 159.867 344.048 169.595 344.048ZM169.851 325.488C169.851 321.776 172.539 319.472 176.635 317.68C180.347 316.272 186.235 314.992 189.307 311.408V314.224C189.307 324.976 183.035 331.12 176.251 331.12C172.923 331.12 169.851 329.712 169.851 325.488ZM216.52 342H235.72V316.4C235.72 301.936 241.736 294 250.44 294C253.768 294 257.224 295.152 260.552 296.816V277.872C257.864 276.464 254.792 275.824 251.72 275.824C242.76 275.824 237.64 281.328 235.72 290.672H235.08V278H216.52V342ZM284.523 344.048C292.971 344.048 301.291 339.824 306.667 332.272H307.307V342H325.355V254.96H306.155V286.832H305.515C300.523 279.408 293.867 275.824 285.675 275.824C268.267 275.824 259.435 289.136 259.435 310.128C259.435 332.912 269.291 344.048 284.523 344.048ZM278.251 310C278.251 295.664 284.139 289.904 291.819 289.904C300.907 289.904 306.027 297.968 306.027 310.128C306.027 323.312 300.267 330.096 291.691 330.096C281.067 330.096 278.251 320.24 278.251 310ZM365.369 344.048C376.121 344.048 384.313 341.872 390.329 338.544V324.464C382.393 328.688 375.481 330.224 368.441 330.224C355.001 330.224 349.241 324.208 349.241 315.12H392.121V306.928C392.121 285.168 380.217 275.824 361.785 275.824C339.257 275.824 330.297 289.52 330.297 309.488C330.297 334.448 344.377 344.048 365.369 344.048ZM349.241 303.344C349.241 293.36 354.873 289.136 362.681 289.136C371.897 289.136 375.481 294.896 375.481 303.344H349.241ZM397.365 342H416.565V309.616C416.565 296.432 423.349 292.72 428.981 292.72C436.149 292.72 438.965 298.48 438.965 306.928V342H458.165V300.016C458.165 282.608 450.229 275.824 438.709 275.824C428.469 275.824 421.557 281.2 416.821 289.136H416.181V278H397.365V342ZM118.36 455.048C133.336 455.048 144.6 449.8 149.592 444.424V410.76H130.392V436.104C128.6 438.28 124.76 439.304 120.536 439.304C104.92 439.304 95.96 428.04 95.96 410.12C95.96 390.28 106.84 384.392 120.152 384.392C130.264 384.392 138.456 387.72 146.008 391.56V373.64C140.504 370.056 129.624 366.472 117.336 366.472C90.968 366.472 75.48 382.6 75.48 410.632C75.48 439.816 91.992 455.048 118.36 455.048ZM169.595 455.048C178.043 455.048 186.107 451.208 190.715 441.992H191.483C192.123 447.752 193.019 450.824 193.915 453H211.963C210.043 447.112 209.019 441.608 208.379 433.672C207.867 427.528 207.739 421.384 207.739 410.376C207.611 394.12 198.907 386.824 183.547 386.824C173.563 386.824 163.451 390.024 157.051 394.248V410.12C162.939 405.384 171.259 401.544 178.555 401.544C184.827 401.544 188.795 404.36 188.795 408.712C188.795 415.88 176.891 418.312 169.467 420.36C161.019 422.664 151.675 427.528 151.675 439.048C151.675 449.8 159.867 455.048 169.595 455.048ZM169.851 436.488C169.851 432.776 172.539 430.472 176.635 428.68C180.347 427.272 186.235 425.992 189.307 422.408V425.224C189.307 435.976 183.035 442.12 176.251 442.12C172.923 442.12 169.851 440.712 169.851 436.488ZM216.52 453H235.72V420.616C235.72 407.432 242.504 403.72 248.136 403.72C255.304 403.72 258.12 409.48 258.12 417.928V453H277.32V420.616C277.32 407.56 283.336 403.72 289.096 403.72C296.136 403.72 298.952 409.352 298.952 417.928V453H318.28V411.016C318.28 393.608 310.344 386.824 298.44 386.824C288.072 386.824 281.16 392.456 276.68 400.904H276.168C273.352 390.92 266.568 386.824 257.608 386.824C247.752 386.824 240.712 392.2 235.976 400.136H235.336V389H216.52V453ZM357.754 455.048C368.506 455.048 376.698 452.872 382.714 449.544V435.464C374.778 439.688 367.866 441.224 360.826 441.224C347.386 441.224 341.626 435.208 341.626 426.12H384.506V417.928C384.506 396.168 372.602 386.824 354.17 386.824C331.642 386.824 322.682 400.52 322.682 420.488C322.682 445.448 336.762 455.048 357.754 455.048ZM341.626 414.344C341.626 404.36 347.258 400.136 355.066 400.136C364.282 400.136 367.866 405.896 367.866 414.344H341.626Z" fill="white"/>
</g>
<defs>
<filter id="filter0_d_201_2" x="-4" y="0" width="608" height="608" filterUnits="userSpaceOnUse" color-interpolation-filters="sRGB">
<feFlood flood-opacity="0" result="BackgroundImageFix"/>
<feColorMatrix in="SourceAlpha" type="matrix" values="0 0 0 0 0 0 0 0 0 0 0 0 0 0 0 0 0 0 127 0" result="hardAlpha"/>
<feOffset dy="4"/>
<feGaussianBlur stdDeviation="2"/>
<feComposite in2="hardAlpha" operator="out"/>
<feColorMatrix type="matrix" values="0 0 0 0 0 0 0 0 0 0 0 0 0 0 0 0 0 0 0.25 0"/>
<feBlend mode="normal" in2="BackgroundImageFix" result="effect1_dropShadow_201_2"/>
<feBlend mode="normal" in="SourceGraphic" in2="effect1_dropShadow_201_2" result="shape"/>
</filter>
</defs>
</svg>
